<?xml version="1.0" encoding="UTF-8" standalone="no" ?>
<!DOCTYPE svg PUBLIC "-//W3C//DTD SVG 20010904//EN"
              "http://www.w3.org/TR/2001/REC-SVG-20010904/DTD/svg10.dtd">

<svg xmlns="http://www.w3.org/2000/svg"
     width="3.03333in" height="1.77in"
     viewBox="0 0 910 531">
  <path id="Selección"
        fill="#fff" stroke="black" stroke-width="2"
        d="M 289.00,14.53
           C 299.67,13.05 306.17,22.93 311.19,31.00
             323.44,50.73 333.76,74.41 342.40,96.00
             365.03,152.56 383.10,210.92 397.87,270.00
             403.22,291.40 408.09,313.13 411.13,335.00
             411.13,335.00 413.96,366.00 413.96,366.00
             413.24,384.60 401.97,401.29 389.00,413.99
             382.22,420.62 373.97,426.64 364.00,425.90
             353.78,425.15 350.19,416.50 347.35,408.00
             342.34,392.93 338.90,366.23 337.16,350.00
             337.16,350.00 324.17,196.00 324.17,196.00
             321.77,172.04 317.58,127.14 308.38,106.00
             303.46,94.70 297.19,96.30 288.00,101.31
             275.07,108.37 250.23,130.97 237.65,113.00
             236.03,110.69 235.41,108.71 234.82,106.00
             232.87,97.02 235.80,86.53 238.67,78.00
             244.05,62.00 253.13,45.97 263.92,33.00
             270.74,24.80 278.55,17.60 289.00,14.53 Z
           M 127.00,320.00
           C 126.35,313.37 127.35,307.53 127.92,301.01
             130.60,270.55 139.99,248.58 151.85,221.00
             159.51,203.18 168.92,187.03 169.13,167.15
             169.24,156.30 165.02,146.09 157.98,137.87
             155.47,134.93 150.71,130.37 146.72,129.84
             138.09,128.70 129.39,137.05 124.32,142.99
             104.52,166.17 87.18,209.93 68.33,236.96
             62.47,245.37 50.92,259.81 39.00,255.62
             30.00,252.46 24.68,240.19 21.28,231.99
             21.28,231.99 13.86,209.00 13.86,209.00
             10.68,197.72 8.33,186.08 8.26,174.35
             8.21,164.61 9.10,160.65 11.98,151.42
             13.79,145.63 15.36,140.47 18.16,135.00
             33.82,104.37 64.39,82.41 96.00,70.58
             107.71,66.19 125.25,62.13 137.72,62.16
             146.38,62.17 157.58,62.16 166.00,64.18
             201.03,72.57 223.66,96.48 237.14,129.00
             243.25,143.73 245.88,160.05 243.79,175.96
             241.53,193.16 234.66,209.48 225.30,224.00
             225.30,224.00 217.00,236.00 217.00,236.00
             224.29,236.66 227.53,238.77 234.00,241.58
             244.87,246.29 255.51,251.90 265.28,258.60
             275.60,265.68 285.46,273.64 293.83,283.00
             316.81,308.71 329.96,342.46 330.00,377.00
             330.00,377.00 330.00,388.00 330.00,388.00
             329.99,398.82 328.77,403.46 327.01,413.72
             325.23,424.18 321.14,439.43 316.53,448.96
             296.97,489.31 241.47,514.10 199.00,519.43
             199.00,519.43 186.00,520.03 186.00,520.03
             186.00,520.03 178.00,520.60 178.00,520.60
             146.37,520.18 113.48,509.81 95.54,482.00
             89.88,473.22 87.83,467.86 85.00,458.00
             81.56,446.02 80.91,433.39 81.00,421.00
             81.07,412.02 82.75,404.73 84.00,396.00
             84.59,391.84 86.43,379.40 89.03,376.56
             90.11,375.37 90.68,375.46 92.00,375.00
             96.27,393.66 110.47,410.45 129.83,413.94
             129.83,413.94 154.00,416.06 154.00,416.06
             158.67,416.51 163.25,417.25 165.93,421.76
             167.66,424.84 166.84,429.74 165.93,433.00
             165.93,433.00 158.00,455.14 158.00,455.14
             158.00,455.14 175.71,455.14 175.71,455.14
             191.99,455.38 208.59,453.71 224.00,448.20
             228.81,446.48 235.55,442.90 239.66,439.81
             248.70,433.01 256.64,422.27 259.71,411.28
             267.11,384.82 254.85,345.18 239.96,323.00
             235.76,316.74 228.69,309.18 223.00,304.30
             219.00,300.87 213.98,298.40 211.00,294.00
             205.66,293.37 200.34,289.87 195.00,288.45
             182.00,285.00 168.95,285.46 157.00,292.17
             149.71,296.27 143.80,301.61 138.44,308.00
             134.58,312.60 132.81,318.19 127.00,320.00 Z
           M 808.00,122.44
           C 814.76,121.84 820.43,122.80 827.00,124.21
             833.46,125.59 836.10,126.79 842.00,129.64
             860.75,138.71 872.98,158.02 877.47,178.00
             877.47,178.00 878.37,186.00 878.37,186.00
             878.37,186.00 881.70,202.00 881.70,202.00
             881.70,202.00 882.29,209.00 882.29,209.00
             882.97,214.20 885.00,220.88 884.73,226.00
             884.73,226.00 884.73,237.28 884.73,237.28
             884.78,244.80 881.86,255.10 878.91,262.00
             874.64,271.99 865.18,283.22 856.00,289.04
             851.88,291.65 844.63,294.59 840.00,296.45
             840.00,296.45 833.00,299.21 833.00,299.21
             833.00,299.21 811.00,302.70 811.00,302.70
             807.14,303.14 806.29,302.57 803.00,302.70
             803.00,302.70 795.00,302.70 795.00,302.70
             769.41,300.64 748.97,284.62 739.35,261.00
             739.35,261.00 737.38,254.00 737.38,254.00
             737.38,254.00 735.04,247.00 735.04,247.00
             735.04,247.00 732.82,231.00 732.82,231.00
             732.82,231.00 730.72,218.00 730.72,218.00
             729.61,209.39 727.14,203.53 727.18,194.58
             727.24,181.92 730.13,169.19 736.12,158.00
             744.59,142.17 760.28,132.43 777.00,127.53
             777.00,127.53 784.00,125.13 784.00,125.13
             784.00,125.13 808.00,122.44 808.00,122.44 Z
           M 657.80,164.00
           C 657.66,159.98 654.95,152.50 657.80,149.51
             659.95,146.86 664.75,147.12 668.00,146.72
             668.00,146.72 695.00,142.08 695.00,142.08
             697.82,141.86 703.88,140.63 705.44,143.44
             705.44,143.44 707.66,156.00 707.66,156.00
             707.66,156.00 712.57,184.00 712.57,184.00
             712.57,184.00 713.37,192.00 713.37,192.00
             713.37,192.00 716.68,208.00 716.68,208.00
             716.68,208.00 720.20,234.00 720.20,234.00
             720.20,234.00 723.57,251.00 723.57,251.00
             723.57,251.00 727.14,277.00 727.14,277.00
             727.14,277.00 729.54,287.00 729.54,287.00
             729.54,287.00 733.00,313.00 733.00,313.00
             733.11,322.39 733.85,332.83 731.56,342.00
             723.10,375.85 692.48,391.73 660.00,394.83
             642.87,396.47 627.29,394.58 612.00,386.10
             608.19,383.99 598.79,378.02 600.00,373.00
             600.65,370.29 605.11,365.23 607.00,363.00
             607.00,363.00 618.74,348.00 618.74,348.00
             620.50,345.84 623.39,341.43 626.09,340.73
             629.20,339.93 633.24,343.26 636.00,344.62
             640.34,346.77 645.24,347.40 650.00,348.00
             661.96,349.50 678.39,342.23 682.10,330.00
             684.34,323.14 682.57,314.98 682.10,308.00
             675.41,314.09 671.47,321.73 662.00,325.44
             656.29,327.68 642.99,331.01 637.00,330.88
             631.23,330.75 625.52,329.79 620.00,328.08
             597.78,321.17 584.63,298.36 579.44,277.00
             579.44,277.00 576.74,259.00 576.74,259.00
             576.74,259.00 575.04,252.00 575.04,252.00
             575.04,252.00 571.00,223.00 571.00,223.00
             571.00,223.00 571.00,210.00 571.00,210.00
             571.02,197.98 575.75,181.51 583.24,172.04
             590.76,162.53 598.61,157.65 610.00,154.23
             620.57,151.06 623.14,150.51 634.00,152.54
             645.54,154.71 648.84,156.14 657.80,164.00 Z
           M 803.00,171.55
           C 798.98,171.90 795.83,172.25 792.00,173.71
             787.31,175.50 783.42,178.67 780.93,183.04
             774.09,194.84 779.46,204.97 780.93,217.00
             783.02,233.76 785.39,255.85 808.00,254.53
             811.71,254.31 814.49,254.01 818.00,252.68
             820.56,251.70 823.84,250.26 825.98,248.59
             838.94,238.49 833.30,224.22 832.07,211.00
             830.91,198.45 828.59,177.89 815.00,172.87
             811.42,171.55 806.78,171.41 803.00,171.55 Z
           M 455.00,198.00
           C 458.12,191.60 462.23,185.90 468.00,181.61
             475.42,176.08 479.41,175.35 488.00,173.63
             492.93,172.64 492.21,172.08 498.00,172.00
             513.37,171.81 526.63,175.09 538.00,186.04
             548.06,195.74 555.36,211.42 558.47,225.00
             558.47,225.00 560.25,239.00 560.25,239.00
             560.25,239.00 562.23,247.00 562.23,247.00
             562.23,247.00 566.30,276.00 566.30,276.00
             566.30,276.00 569.54,291.00 569.54,291.00
             569.54,291.00 570.42,299.00 570.42,299.00
             570.42,299.00 574.83,326.00 574.83,326.00
             575.27,328.39 576.69,334.72 575.65,336.69
             574.31,339.24 569.63,339.14 567.00,339.74
             567.00,339.74 550.00,342.19 550.00,342.19
             550.00,342.19 538.00,344.85 538.00,344.85
             534.93,345.23 529.34,346.77 527.51,343.68
             527.51,343.68 522.80,320.00 522.80,320.00
             522.80,320.00 519.70,298.00 519.70,298.00
             519.70,298.00 514.46,269.00 514.46,269.00
             514.46,269.00 512.00,252.00 512.00,252.00
             509.61,242.05 510.69,234.51 502.00,227.22
             498.64,224.42 493.38,222.64 489.00,222.59
             478.18,222.45 465.14,228.36 463.09,240.00
             461.42,249.54 465.52,268.24 467.49,278.00
             467.49,278.00 471.20,305.00 471.20,305.00
             471.20,305.00 475.05,326.00 475.05,326.00
             475.05,326.00 476.70,335.00 476.70,335.00
             476.70,335.00 477.56,345.00 477.56,345.00
             478.14,347.41 479.23,351.30 477.56,353.26
             475.38,355.35 470.94,354.79 468.17,355.46
             468.17,355.46 453.00,358.71 453.00,358.71
             447.94,359.37 448.00,358.58 442.00,360.00
             439.00,360.71 433.32,362.05 430.93,359.40
             429.11,357.38 428.27,349.84 427.95,347.00
             427.95,347.00 424.26,322.00 424.26,322.00
             424.26,322.00 418.68,287.00 418.68,287.00
             418.68,287.00 415.28,270.00 415.28,270.00
             415.28,270.00 412.30,250.00 412.30,250.00
             412.30,250.00 411.12,241.00 411.12,241.00
             411.12,241.00 406.87,215.00 406.87,215.00
             406.87,215.00 405.07,204.00 405.07,204.00
             404.78,201.01 402.97,194.10 403.47,192.13
             404.37,188.60 409.90,188.29 413.00,187.66
             413.00,187.66 422.00,186.71 422.00,186.71
             422.00,186.71 440.00,183.89 440.00,183.89
             442.73,183.52 447.24,181.56 449.58,182.59
             453.96,184.51 451.65,191.65 455.00,198.00 Z
           M 642.00,195.29
           C 638.53,195.90 636.22,196.39 633.00,197.98
             620.76,204.02 620.67,215.42 621.83,227.00
             621.83,227.00 625.58,252.00 625.58,252.00
             628.06,265.66 631.22,280.41 648.00,281.25
             650.20,281.36 657.02,281.06 659.00,280.49
             681.57,273.99 671.58,247.03 669.27,231.00
             668.00,222.17 667.13,208.99 661.45,202.10
             656.84,196.51 648.89,194.66 642.00,195.29 Z" />
</svg>
